<svg width="16" height="16" viewBox="0 0 16 16" fill="none" xmlns="http://www.w3.org/2000/svg">
<path fill-rule="evenodd" clip-rule="evenodd" d="M2 6.93073C2 5.43726 2 4.69052 2.29065 4.12009C2.54631 3.61832 2.95426 3.21037 3.45603 2.95471C4.02646 2.66406 4.77319 2.66406 6.26667 2.66406H9.73333C11.2268 2.66406 11.9735 2.66406 12.544 2.95471C13.0457 3.21037 13.4537 3.61832 13.7094 4.12009C14 4.69052 14 5.43726 14 6.93073V7.73073C14 9.2242 14 9.97094 13.7094 10.5414C13.4537 11.0431 13.0457 11.4511 12.544 11.7067C11.9735 11.9974 11.2268 11.9974 9.73333 11.9974L4.94281 11.9974C4.766 11.9974 4.59643 12.0676 4.4714 12.1927L3.13807 13.526C2.7181 13.946 2 13.6485 2 13.0546V11.9974V8.66406V6.93073ZM6 5.33105C5.63181 5.33105 5.33333 5.62953 5.33333 5.99772C5.33333 6.36591 5.63181 6.66439 6 6.66439H10C10.3682 6.66439 10.6667 6.36591 10.6667 5.99772C10.6667 5.62953 10.3682 5.33105 10 5.33105H6ZM6 7.99772C5.63181 7.99772 5.33333 8.2962 5.33333 8.66439C5.33333 9.03258 5.63181 9.33105 6 9.33105H8C8.36819 9.33105 8.66667 9.03258 8.66667 8.66439C8.66667 8.2962 8.36819 7.99772 8 7.99772H6Z" fill="#64748B"/>
</svg>
