<svg width="33" height="33" viewBox="0 0 33 33" fill="none" xmlns="http://www.w3.org/2000/svg">
<circle cx="16.5" cy="16.5" r="16" fill="#334155"/>
<circle cx="16.5" cy="16.5" r="15.5" stroke="#F8FAFC" stroke-opacity="0.1"/>
<path d="M7.65153 19.6687C8.56459 24.5642 13.2734 27.7926 18.1689 26.8796C23.0644 25.9665 26.2929 21.2577 25.3798 16.3622C24.4667 11.4667 19.758 8.23823 14.8624 9.15128C9.9669 10.0643 6.73847 14.7731 7.65153 19.6687Z" fill="#64748B"/>
<circle cx="2.25425" cy="2.25425" r="2.25425" transform="matrix(-0.983048 0.183347 0.183347 0.983048 9.46875 16.4326)" fill="#64748B"/>
<ellipse cx="2.25425" cy="2.25425" rx="2.25425" ry="2.25425" transform="matrix(-0.983048 0.183347 0.183347 0.983048 27.2344 16.4326)" fill="#64748B"/>
<path fill-rule="evenodd" clip-rule="evenodd" d="M7.47999 15.7481C8.8263 16.6748 10.5269 17.0601 12.231 16.6775C13.9597 16.2893 15.3472 15.1883 16.1637 13.7448C17.4678 16.043 20.1283 17.3276 22.7974 16.7283C23.7573 16.5127 24.612 16.0774 25.3221 15.4857C25.2955 15.3317 25.2649 15.1774 25.2302 15.0232C24.1193 10.0759 19.2798 6.94993 14.4208 8.04101C10.6338 8.89139 7.95266 12.0525 7.47999 15.7481Z" fill="#1E293B"/>
<path fill-rule="evenodd" clip-rule="evenodd" d="M22.9983 10.7055L9.85545 10.5811C10.1671 8.0394 13.0183 6.06859 16.4699 6.10125C19.9215 6.13391 22.7349 8.15833 22.9983 10.7055Z" fill="#475569"/>
<rect x="7.66406" y="10.5615" width="17.525" height="2.19062" rx="0.730207" transform="rotate(0.542194 7.66406 10.5615)" fill="#475569"/>
<path d="M14.2605 7.70517C14.272 6.49538 15.262 5.52393 16.4718 5.53538C17.6816 5.54683 18.653 6.53684 18.6416 7.74663L18.6139 10.6673L14.2329 10.6259L14.2605 7.70517Z" fill="#334155"/>
</svg>
